<?xml version="1.0" standalone="no"?>
<!DOCTYPE svg PUBLIC "-//W3C//DTD SVG 20010904//EN"
 "http://www.w3.org/TR/2001/REC-SVG-20010904/DTD/svg10.dtd">
<svg version="1.0" xmlns="http://www.w3.org/2000/svg"
 width="120.000000pt" height="120.000000pt" viewBox="0 0 120.000000 120.000000"
 preserveAspectRatio="xMidYMid meet">
<metadata>
Created by potrace 1.11, written by Peter Selinger 2001-2013
</metadata>
<g transform="translate(0.000000,120.000000) scale(0.100000,-0.100000)"
fill="#000000" stroke="none">
<path d="M428 1075 c-1 -1 -21 -5 -43 -8 -95 -13 -186 -75 -221 -150 -26 -57
-31 -125 -11 -168 l12 -26 52 23 51 23 -14 48 c-42 135 30 219 180 211 l54 -3
-44 -175 c-103 -407 -140 -467 -296 -463 -17 0 -37 -10 -55 -29 l-28 -29 140
2 c116 1 147 4 180 20 63 31 61 36 -14 35 -39 -1 -71 0 -71 2 0 3 26 32 57 66
70 76 108 134 128 200 9 28 19 58 22 66 3 8 31 -64 63 -160 32 -96 70 -201 85
-234 33 -71 91 -131 151 -158 62 -27 169 -35 216 -15 35 15 36 16 28 53 -5 21
-7 42 -4 46 13 21 -17 5 -38 -21 -76 -89 -166 -54 -235 91 -30 63 -173 439
-173 455 0 5 8 15 18 23 10 8 42 35 72 60 154 127 202 147 280 116 12 -5 22 6
38 40 13 26 21 48 19 51 -2 2 -26 6 -53 9 -46 6 -53 3 -111 -37 -35 -24 -119
-90 -188 -147 -131 -107 -163 -128 -152 -99 3 9 18 66 33 127 23 90 32 114 49
120 11 4 27 15 34 23 11 14 0 16 -97 16 -61 -1 -112 -2 -114 -4z"/>
</g>
</svg>
