<?xml version="1.0" standalone="no"?>
<!DOCTYPE svg PUBLIC "-//W3C//DTD SVG 20010904//EN"
 "http://www.w3.org/TR/2001/REC-SVG-20010904/DTD/svg10.dtd">
<svg version="1.0" xmlns="http://www.w3.org/2000/svg"
 width="120.000000pt" height="120.000000pt" viewBox="0 0 120.000000 120.000000"
 preserveAspectRatio="xMidYMid meet">
<metadata>
Created by potrace 1.11, written by Peter Selinger 2001-2013
</metadata>
<g transform="translate(0.000000,120.000000) scale(0.100000,-0.100000)"
fill="#000000" stroke="none">
<path d="M372 1065 c-146 -32 -233 -125 -231 -250 0 -22 5 -52 12 -67 l12 -26
51 23 52 23 -15 55 c-36 129 31 207 180 207 38 0 47 -3 47 -17 0 -28 -96 -392
-119 -455 -45 -118 -100 -168 -186 -168 -44 0 -55 -4 -80 -30 l-29 -30 140 0
c114 0 146 4 180 19 68 31 64 41 -17 41 l-71 0 61 65 c71 76 114 147 137 225
l16 55 39 -125 c89 -282 133 -367 217 -421 76 -48 168 -62 254 -39 l38 11 -7
47 c-3 26 -8 49 -10 51 -2 3 -20 -12 -41 -31 -80 -78 -149 -53 -220 80 -27 51
-182 453 -182 472 0 13 203 170 248 191 40 20 79 21 125 3 13 -4 64 82 54 92
-13 13 -89 16 -118 4 -17 -8 -111 -78 -208 -156 -97 -78 -177 -142 -178 -141
-1 1 13 59 30 129 30 121 32 127 64 142 18 9 33 20 33 26 0 15 -203 11 -278
-5z"/>
</g>
</svg>
